<?xml version="1.0" encoding="UTF-8"?>
<svg fill="none" viewBox="0 0 24 24" xmlns="http://www.w3.org/2000/svg">
<path d="m2 5h5c2.2091 0 4 1.7909 4 4 0 0.97964-0.3522 1.877-0.9368 2.5725 1.1607 0.7001 1.9368 1.9732 1.9368 3.4275 0 2.2091-1.7909 4-4 4h-6v-14zm2 12v-4h4c1.1046 0 2 0.8954 2 2s-0.89543 2-2 2h-4zm17-11h-7v2h7v-2zm-3.3622 11c1.0405 0 1.6799-0.2128 2.0212-0.533 0.1799-0.1687 0.2549-0.3564 0.2549-0.467h2c0 1.6272-1.4633 3-4.2761 3-2.7832 0-4.6378-1.8042-4.6378-5 0-2.9661 1.5805-5 4.5-5s4.5 2.0339 4.5 5v1h-6.9114c0.2715 1.3771 1.1589 2 2.5492 2zm2.2768-4c-0.2483-1.3098-1.0413-2-2.4146-2s-2.1663 0.6902-2.4146 2h4.8292zm-15.915-2v-4h3c1.1046 0 2 0.89543 2 2 0 1.1046-0.89543 2-2 2h-3z" clip-rule="evenodd" fill="#000" fill-rule="evenodd"/>
</svg>
