<svg width="24" height="24" viewBox="0 0 24 24" fill="none" xmlns="http://www.w3.org/2000/svg">
<path fill-rule="evenodd" clip-rule="evenodd" d="M12 23C5.9249 23 1 18.0751 1 12C1 5.9249 5.9249 1 12 1C18.0751 1 23 5.9249 23 12C23 18.0751 18.0751 23 12 23ZM20.8678 13.5458C18.9343 13.0966 17.1266 12.981 15.4388 13.2017C16.2798 15.2769 16.892 17.3073 17.2746 19.2932C19.1353 17.9452 20.4598 15.9025 20.8678 13.5458ZM15.4278 20.3242C15.0688 18.1639 14.4112 15.9334 13.4539 13.6332C10.7665 14.4645 8.4145 16.2568 6.3703 19.0222C7.9118 20.2597 9.8695 21 12.0001 21C13.2138 21 14.3714 20.7597 15.4279 20.3242H15.4278ZM4.9458 17.5892C7.1521 14.6878 9.7224 12.7533 12.633 11.7959C12.4453 11.4028 12.2491 11.0076 12.0444 10.6105C11.5275 10.7486 10.9917 10.8678 10.4377 10.9691C8.207 11.3769 6.2735 11.4563 3.1374 11.4115C3.09625 11.4109 3.05698 11.4103 3.01946 11.4098C3.00683 11.6049 3.00042 11.8017 3.00042 12C3.00042 14.1119 3.72784 16.0539 4.94582 17.5892H4.9458ZM3.3773 9.4145C4.09089 7.0311 5.7656 5.063 7.9515 3.96C9.1183 5.6024 10.1537 7.2146 11.058 8.7966C10.7401 8.87207 10.4134 8.94035 10.078 9.00165C8.0604 9.3705 6.2654 9.45098 3.3773 9.41449V9.4145ZM9.8959 3.2474C11.0665 4.923 12.1068 6.5726 13.0164 8.1964C14.9331 7.45518 16.4209 6.3536 17.4347 4.8252C15.9247 3.6797 14.0419 3 12.0004 3C11.2757 3 10.571 3.08565 9.8959 3.24738V3.2474ZM18.9015 6.2226C20.1163 7.6722 20.8829 9.5102 20.988 11.5234C18.7259 11.0359 16.5986 10.9639 14.6125 11.3046C14.4067 10.8629 14.1908 10.4193 13.9649 9.9737C16.0258 9.13972 17.6944 7.915 18.9015 6.2227V6.2226Z" fill="black"/>
</svg>
