<?xml version="1.0" encoding="UTF-8"?>
<svg fill="none" viewBox="0 0 24 24" xmlns="http://www.w3.org/2000/svg">
<path d="m12 23c-6.0751 0-11-4.9249-11-11 0-6.0751 4.9249-11 11-11 6.0751 0 11 4.9249 11 11 0 6.0751-4.9249 11-11 11zm8.8678-9.4542c-1.9335-0.4492-3.7412-0.5648-5.429-0.3441 0.841 2.0752 1.4532 4.1056 1.8358 6.0915 1.8607-1.348 3.1852-3.3907 3.5932-5.7474zm-5.44 6.7784c-0.359-2.1603-1.0166-4.3908-1.9739-6.691-2.6874 0.8313-5.0394 2.6236-7.0836 5.389 1.5415 1.2375 3.4992 1.9778 5.6298 1.9778 1.2137 0 2.3713-0.2403 3.4278-0.6758zm-10.482-2.735c2.2063-2.9014 4.7766-4.8359 7.6872-5.7933-0.1877-0.3931-0.3839-0.7883-0.5886-1.1854-0.5169 0.1381-1.0527 0.2573-1.6067 0.3586-2.2307 0.4078-4.1642 0.4872-7.3003 0.4424-0.04115-6e-4 -0.08042-0.0012-0.11794-0.0017-0.01263 0.1951-0.01904 0.3919-0.01904 0.5902 0 2.1119 0.72742 4.0539 1.9454 5.5892zm-1.5685-8.1747c0.71359-2.3834 2.3883-4.3515 4.5742-5.4545 1.1668 1.6424 2.2022 3.2546 3.1065 4.8366-0.3179 0.07547-0.6446 0.14375-0.98 0.20505-2.0176 0.36885-3.8126 0.44933-6.7007 0.41284zm6.5186-6.1671c1.1706 1.6756 2.2109 3.3252 3.1205 4.949 1.9167-0.74122 3.4045-1.8428 4.4183-3.3712-1.51-1.1455-3.3928-1.8252-5.4343-1.8252-0.7247 0-1.4294 0.08565-2.1045 0.24738zm9.0056 2.9752c1.2148 1.4496 1.9814 3.2876 2.0865 5.3008-2.2621-0.4875-4.3894-0.5595-6.3755-0.2188-0.2058-0.4417-0.4217-0.8853-0.6476-1.3309 2.0609-0.83398 3.7295-2.0587 4.9366-3.751z" clip-rule="evenodd" fill="#000" fill-rule="evenodd"/>
</svg>
