<?xml version="1.0" encoding="UTF-8"?>
<svg fill="none" viewBox="0 0 24 24" xmlns="http://www.w3.org/2000/svg">
<path d="m10.017 20.004c0.0052 0.1229-8e-3 0.2428-0.0339 0.3641-0.04545 0.2132-0.13323 0.4388-0.25749 0.6473-0.35322 0.5925-0.95327 0.9879-1.7258 0.9879-1.8199 0-2.5342-0.8928-3.4285-3.1286-0.60568-1.5142-0.89142-1.8714-1.5715-1.8714v-2c1.8199 0 2.5342 0.8929 3.4285 3.1286 0.60568 1.5143 0.89142 1.8714 1.5715 1.8714 0-0.2901-0.00397-0.5472-0.01234-0.8952-0.0196-0.8158-0.02185-0.9824 0.01374-1.2005 0.01422-0.4761 0.13714-0.8139 0.3836-1.1491-2.2318-0.4859-3.7371-1.4892-4.601-3.1167l-0.32363-0.7611c-0.31529-0.9061-0.46034-1.9328-0.46034-3.1185 0-1.3656 0.41635-2.5865 1.194-3.6072-0.24259-0.97014-0.20937-2.1554 0.32629-3.4941l0.17503-0.4374 0.44873-0.14354c0.06008-0.01922 0.13311-0.03657 0.21892-0.05004 0.87377-0.13714 2.1171 0.19006 3.7426 1.2312 0.95825-0.22212 1.9672-0.33427 2.9832-0.33427 0.9078 0 1.8107 0.09153 2.6728 0.27197 1.5815-0.99033 2.7906-1.3009 3.6409-1.1688 0.0848 0.01319 0.1571 0.03022 0.2167 0.04911l0.4515 0.14319 0.1753 0.44007c0.4686 1.1767 0.549 2.2612 0.3785 3.2101 0.894 1.0727 1.3755 2.3915 1.3755 3.8895 0 1.263-0.0905 2.2126-0.3506 3.1365l-0.2745 0.7534c-0.7186 1.6257-2.3034 2.6403-4.7474 3.1235 0.2541 0.3518 0.3725 0.7088 0.3725 1.2277v1c0 0.4846 0 0.4996-0.0011 1 0.0023 0.036 0.0053 0.0536 0.0085 0.0645-8e-4 3e-4 -0.0074 1.9355-0.0074 1.9355-0.8518 0-1.4851-0.4154-1.7966-1.0706-0.1615-0.3398-0.2098-0.6642-0.2034-0.9436v-1.9858c0-0.0838-0.0029-0.0887-0.2071-0.2929-0.5458-0.5458-0.7929-0.9576-0.7929-1.7071v-0.9046l0.9001-0.0904c2.6792-0.269 4.1364-1.0131 4.6196-2.1001l0.2258-0.6172c0.1796-0.6454 0.2545-1.4313 0.2545-2.5288 0-1.1661-0.4071-2.1294-1.177-2.899l-0.4232-0.42302 0.1727-0.57288c0.1535-0.50895 0.1899-1.1112 0.0276-1.7981-0.027 0.00683-0.055 0.01428-0.0841 0.02238-0.5355 0.14907-1.204 0.46893-2.0096 1.0074l-0.3674 0.2456-0.4289-0.10637c-0.8297-0.20572-1.7212-0.31135-2.6213-0.31135-1.0009 0-1.9903 0.12735-2.9043 0.37653l-0.44605 0.1216-0.38159-0.26104c-0.83319-0.56999-1.5254-0.90895-2.0804-1.0673-0.03964-0.01131-0.07738-0.02143-0.11326-0.03045-0.19364 0.79499-0.11705 1.4481 0.07907 1.9382l0.23515 0.58765-0.43049 0.46401c-0.68599 0.73938-1.0469 1.6392-1.0469 2.706 0 0.97677 0.11434 1.7862 0.32388 2.3958l0.26169 0.6195c0.65417 1.2275 2.0436 1.966 4.521 2.2315l0.8934 0.0958v0.8985c0 0.7495-0.2471 1.1613-0.7929 1.7071-0.2042 0.2042-0.2071 0.2091-0.2071 0.2929l-0.01724 0.1849c-0.0114 0.0606-0.0114 0.2172 0.00433 0.8718 0.00723 0.3011 0.01135 0.5394 0.01254 0.7884 0.01197 0.0516 0.01377 0.0848 0.01757 0.1556z" clip-rule="evenodd" fill="#000" fill-rule="evenodd"/>
</svg>
