<svg width="24" height="24" viewBox="0 0 24 24" fill="none" xmlns="http://www.w3.org/2000/svg">
<path fill-rule="evenodd" clip-rule="evenodd" d="M10.0169 20.0039C10.0221 20.1268 10.0089 20.2467 9.98305 20.368C9.9376 20.5812 9.84982 20.8068 9.72556 21.0153C9.37234 21.6078 8.77229 22.0032 7.99976 22.0032C6.17986 22.0032 5.46556 21.1104 4.57126 18.8746C3.96558 17.3604 3.67984 17.0032 2.99976 17.0032V15.0032C4.81966 15.0032 5.53396 15.8961 6.42826 18.1318C7.03394 19.6461 7.31968 20.0032 7.99976 20.0032C7.99976 19.7131 7.99579 19.456 7.98742 19.108C7.96782 18.2922 7.96557 18.1256 8.00116 17.9075C8.01538 17.4314 8.1383 17.0936 8.38476 16.7584C6.15296 16.2725 4.64766 15.2692 3.78376 13.6417L3.46013 12.8806C3.14484 11.9745 2.99979 10.9478 2.99979 9.76214C2.99979 8.39654 3.41614 7.17564 4.19379 6.15494C3.9512 5.1848 3.98442 3.99954 4.52008 2.66084L4.69511 2.22344L5.14384 2.0799C5.20392 2.06068 5.27695 2.04333 5.36276 2.02986C6.23653 1.89272 7.47986 2.21992 9.10536 3.26106C10.0636 3.03894 11.0726 2.92679 12.0886 2.92679C12.9964 2.92679 13.8993 3.01832 14.7614 3.19876C16.3429 2.20843 17.552 1.89786 18.4023 2.02996C18.4871 2.04315 18.5594 2.06018 18.619 2.07907L19.0705 2.22226L19.2458 2.66233C19.7144 3.83903 19.7948 4.92353 19.6243 5.87243C20.5183 6.94513 20.9998 8.26393 20.9998 9.76193C20.9998 11.0249 20.9093 11.9745 20.6492 12.8984L20.3747 13.6518C19.6561 15.2775 18.0713 16.2921 15.6273 16.7753C15.8814 17.1271 15.9998 17.4841 15.9998 18.003V19.003C15.9998 19.4876 15.9998 19.5026 15.9987 20.003C16.001 20.039 16.004 20.0566 16.0072 20.0675C16.0064 20.0678 15.9998 22.003 15.9998 22.003C15.148 22.003 14.5147 21.5876 14.2032 20.9324C14.0417 20.5926 13.9934 20.2682 13.9998 19.9888V18.003C13.9998 17.9192 13.9969 17.9143 13.7927 17.7101C13.2469 17.1643 12.9998 16.7525 12.9998 16.003V15.0984L13.8999 15.008C16.5791 14.739 18.0363 13.9949 18.5195 12.9079L18.7453 12.2907C18.9249 11.6453 18.9998 10.8594 18.9998 9.76193C18.9998 8.59583 18.5927 7.63253 17.8228 6.86293L17.3996 6.43991L17.5723 5.86703C17.7258 5.35808 17.7622 4.75583 17.5999 4.06893C17.5729 4.07576 17.5449 4.08321 17.5158 4.09131C16.9803 4.24038 16.3118 4.56024 15.5062 5.09871L15.1388 5.34431L14.7099 5.23794C13.8802 5.03222 12.9887 4.92659 12.0886 4.92659C11.0877 4.92659 10.0983 5.05394 9.18426 5.30312L8.73821 5.42472L8.35662 5.16368C7.52343 4.59369 6.83122 4.25473 6.27622 4.09638C6.23658 4.08507 6.19884 4.07495 6.16296 4.06593C5.96932 4.86092 6.04591 5.51403 6.24203 6.00413L6.47718 6.59178L6.04669 7.05579C5.3607 7.79517 4.99979 8.69499 4.99979 9.76179C4.99979 10.7386 5.11413 11.548 5.32367 12.1576L5.58536 12.7771C6.23953 14.0046 7.62896 14.7431 10.1064 15.0086L10.9998 15.1044V16.0029C10.9998 16.7524 10.7527 17.1642 10.2069 17.71C10.0027 17.9142 9.99976 17.9191 9.99976 18.0029L9.98252 18.1878C9.97112 18.2484 9.97112 18.405 9.98685 19.0596C9.99408 19.3607 9.9982 19.599 9.99939 19.848C10.0114 19.8996 10.0132 19.9328 10.017 20.0036L10.0169 20.0039Z" fill="black"/>
</svg>
