<?xml version="1.0" encoding="UTF-8"?>
<svg fill="none" viewBox="0 0 24 24" xmlns="http://www.w3.org/2000/svg">
<path d="m16 2h-8c-3.3137 0-6 2.6863-6 6v8c0 3.3137 2.6863 6 6 6h8c3.3137 0 6-2.6863 6-6v-8c0-3.3137-2.6863-6-6-6zm-12 6c0-2.2091 1.7909-4 4-4h8c2.2091 0 4 1.7909 4 4v8c0 2.2091-1.7909 4-4 4h-8c-2.2091 0-4-1.7909-4-4v-8zm8 9c-2.7614 0-5-2.2386-5-5 0-2.7614 2.2386-5 5-5 2.7614 0 5 2.2386 5 5 0 2.7614-2.2386 5-5 5zm0-2c1.6569 0 3-1.3431 3-3s-1.3431-3-3-3-3 1.3431-3 3 1.3431 3 3 3zm6-8c0 0.55228-0.4477 1-1 1s-1-0.44772-1-1 0.4477-1 1-1 1 0.44772 1 1z" clip-rule="evenodd" fill="#000" fill-rule="evenodd"/>
</svg>
