<?xml version="1.0" encoding="UTF-8"?>
<svg fill="none" viewBox="0 0 24 24" xmlns="http://www.w3.org/2000/svg">
<path d="m4 2h16c1.1046 0 2 0.89543 2 2v16c0 1.1046-0.8954 2-2 2h-16c-1.1046 0-2-0.8954-2-2v-16c0-1.1046 0.89543-2 2-2zm0 2v16h16v-16h-16zm9 5c-0.5177 0-1.0647 0.15826-1.5479 0.45215l-0.4521-0.45215h-1v7h2v-4c0-0.5757 0.594-1 1-1h1c0.406 0 1 0.4243 1 1v4h2v-4c0-1.8528-1.606-3-3-3h-1zm-5-1c0.55228 0 1-0.44772 1-1s-0.44772-1-1-1-1 0.44772-1 1 0.44772 1 1 1zm-1 1v7h2v-7h-2z" clip-rule="evenodd" fill="#000" fill-rule="evenodd"/>
</svg>
