<svg width="36" height="31" viewBox="0 0 36 31" fill="none" xmlns="http://www.w3.org/2000/svg">
<path d="M0.854 28V20.818H1.911C2.135 20.818 2.282 20.923 2.352 21.133L2.464 21.665C2.59 21.525 2.72067 21.3967 2.856 21.28C2.996 21.1633 3.143 21.063 3.297 20.979C3.45567 20.895 3.62367 20.8297 3.801 20.783C3.983 20.7317 4.18133 20.706 4.396 20.706C4.84867 20.706 5.21967 20.8297 5.509 21.077C5.803 21.3197 6.02233 21.644 6.167 22.05C6.279 21.812 6.419 21.609 6.587 21.441C6.755 21.2683 6.93933 21.1283 7.14 21.021C7.34067 20.9137 7.553 20.8343 7.777 20.783C8.00567 20.7317 8.23433 20.706 8.463 20.706C8.85967 20.706 9.212 20.7667 9.52 20.888C9.828 21.0093 10.087 21.1867 10.297 21.42C10.507 21.6533 10.6657 21.938 10.773 22.274C10.885 22.61 10.941 22.995 10.941 23.429V28H9.212V23.429C9.212 22.9717 9.11167 22.6287 8.911 22.4C8.71033 22.1667 8.41633 22.05 8.029 22.05C7.85167 22.05 7.686 22.0803 7.532 22.141C7.38267 22.2017 7.24967 22.2903 7.133 22.407C7.021 22.519 6.93233 22.6613 6.867 22.834C6.80167 23.0067 6.769 23.205 6.769 23.429V28H5.033V23.429C5.033 22.9483 4.935 22.5983 4.739 22.379C4.54767 22.1597 4.26533 22.05 3.892 22.05C3.64 22.05 3.40433 22.113 3.185 22.239C2.97033 22.3603 2.76967 22.5283 2.583 22.743V28H0.854ZM17.2115 23.583C17.2115 23.359 17.1788 23.149 17.1135 22.953C17.0528 22.7523 16.9595 22.5773 16.8335 22.428C16.7075 22.2787 16.5465 22.162 16.3505 22.078C16.1591 21.9893 15.9351 21.945 15.6785 21.945C15.1791 21.945 14.7848 22.0873 14.4955 22.372C14.2108 22.6567 14.0288 23.0603 13.9495 23.583H17.2115ZM13.9145 24.626C13.9425 24.9947 14.0078 25.3143 14.1105 25.585C14.2131 25.851 14.3485 26.0727 14.5165 26.25C14.6845 26.4227 14.8828 26.5533 15.1115 26.642C15.3448 26.726 15.6015 26.768 15.8815 26.768C16.1615 26.768 16.4018 26.7353 16.6025 26.67C16.8078 26.6047 16.9851 26.5323 17.1345 26.453C17.2885 26.3737 17.4215 26.3013 17.5335 26.236C17.6501 26.1707 17.7621 26.138 17.8695 26.138C18.0141 26.138 18.1215 26.1917 18.1915 26.299L18.6885 26.929C18.4971 27.153 18.2825 27.342 18.0445 27.496C17.8065 27.6453 17.5568 27.7667 17.2955 27.86C17.0388 27.9487 16.7751 28.0117 16.5045 28.049C16.2385 28.0863 15.9795 28.105 15.7275 28.105C15.2281 28.105 14.7638 28.0233 14.3345 27.86C13.9051 27.692 13.5318 27.447 13.2145 27.125C12.8971 26.7983 12.6475 26.397 12.4655 25.921C12.2835 25.4403 12.1925 24.885 12.1925 24.255C12.1925 23.765 12.2718 23.3053 12.4305 22.876C12.5891 22.442 12.8155 22.0663 13.1095 21.749C13.4081 21.427 13.7698 21.1727 14.1945 20.986C14.6238 20.7993 15.1068 20.706 15.6435 20.706C16.0961 20.706 16.5138 20.7783 16.8965 20.923C17.2791 21.0677 17.6081 21.28 17.8835 21.56C18.1588 21.8353 18.3735 22.176 18.5275 22.582C18.6861 22.9833 18.7655 23.443 18.7655 23.961C18.7655 24.2223 18.7375 24.3997 18.6815 24.493C18.6255 24.5817 18.5181 24.626 18.3595 24.626H13.9145ZM21.68 21.7C21.8247 21.5553 21.9763 21.4223 22.135 21.301C22.2983 21.175 22.4687 21.07 22.646 20.986C22.828 20.8973 23.0217 20.8297 23.227 20.783C23.4323 20.7317 23.6563 20.706 23.899 20.706C24.291 20.706 24.6387 20.7737 24.942 20.909C25.2453 21.0397 25.4973 21.2263 25.698 21.469C25.9033 21.707 26.0573 21.994 26.16 22.33C26.2673 22.6613 26.321 23.0277 26.321 23.429V28H24.592V23.429C24.592 22.9903 24.4917 22.652 24.291 22.414C24.0903 22.1713 23.7847 22.05 23.374 22.05C23.0753 22.05 22.7953 22.1177 22.534 22.253C22.2727 22.3883 22.0253 22.5727 21.792 22.806V28H20.063V20.818H21.12C21.344 20.818 21.491 20.923 21.561 21.133L21.68 21.7ZM34.1533 20.818V28H33.0963C32.8677 28 32.723 27.895 32.6623 27.685L32.5433 27.111C32.2493 27.4097 31.925 27.6523 31.5703 27.839C31.2157 28.021 30.798 28.112 30.3173 28.112C29.9253 28.112 29.5777 28.0467 29.2743 27.916C28.9757 27.7807 28.7237 27.5917 28.5183 27.349C28.313 27.1063 28.1567 26.8193 28.0493 26.488C27.9467 26.152 27.8953 25.7833 27.8953 25.382V20.818H29.6243V25.382C29.6243 25.8207 29.7247 26.1613 29.9253 26.404C30.1307 26.642 30.4363 26.761 30.8423 26.761C31.141 26.761 31.421 26.6957 31.6823 26.565C31.9437 26.4297 32.191 26.2453 32.4243 26.012V20.818H34.1533Z" fill="#353C3A"/>
<rect x="1" y="10" width="33" height="3" fill="#353C3A"/>
<rect x="1" width="33" height="3" fill="#353C3A"/>
</svg>
