<?xml version="1.0" encoding="UTF-8"?>
<svg fill="none" viewBox="0 0 24 24" xmlns="http://www.w3.org/2000/svg">
<path d="m21.12 4.5083l1.4148 0.16522-0.636 1.2745c-0.3101 0.62153-0.6205 1.243-0.9313 1.8646-0.0368 0.13164-0.1016 0.24704-0.1973 0.39729-0.0401 0.06278-0.1768 0.26249-0.1832 0.27207-0.0361 0.05414-0.0628 0.09684-0.082 0.13105v2.3885c0 6.112-5.915 9.9959-11.501 9.9959-1.143 0-2.0115-0.0547-3.0059-0.2717-1.6365-0.3572-2.8544-1.067-3.4117-2.3077l-0.57376-1.2773 1.3944-0.1283c1.2614-0.116 2.3551-0.3563 3.195-0.6781-2.3058-0.3708-3.598-1.3835-3.598-3.2854v-1h1c0.21971 0 0.41783-0.0178 0.59494-0.0506-1.7305-1.0347-2.5973-2.6945-2.5973-4.9968-1.9e-4 -0.09812-1.9e-4 -0.09813-7.8e-4 -0.20305-0.0065-1.1604 0.05583-1.7805 0.37351-2.5719 0.20359-0.50718 0.49788-0.97671 0.89395-1.4069l0.75461-0.81967 0.73366 0.83847c2.4178 2.7631 4.8078 4.4395 7.248 4.6422 0.0104-2.5497 1.9373-4.4792 4.5001-4.4792 1.1948 0 2.2785 0.45349 3.1302 1.2712 0.4661 0.09578 0.9612 0.17436 1.485 0.23554zm-2.2109 1.6538l-0.3065-0.06942-0.2117-0.23232c-0.5119-0.56173-1.1545-0.85876-1.8861-0.85876-1.4629 0-2.5002 1.0424-2.5002 2.5 0 0.23822-0.0061 0.3879-0.0358 0.58463-0.1184 0.78501-0.5587 1.4154-1.4642 1.4154-2.998 0-5.7027-1.6061-8.3402-4.3492-0.13597 0.41333-0.16794 0.83819-0.16348 1.635 6e-4 0.10657 6e-4 0.10657 8.1e-4 0.21425 0 2.048 0.82971 3.1683 2.7942 3.7927l0.69708 0.2216v0.7314c0 0.887-0.84033 1.7219-2.0699 2.0959 0.56363 0.4277 1.7163 0.6584 3.5812 0.6584h1v1c0 1.4328-1.6463 2.5546-4.1332 3.1404 0.81103 0.2484 1.8909 0.3555 3.1328 0.3555 4.6145 0 9.501-3.2086 9.501-7.9959v-2.5c0-0.29378 0.0852-0.54879 0.2266-0.81393 0.0554-0.10366 0.1163-0.2025 0.1914-0.31522 0.0142-0.02122 0.0667-0.09811 0.1084-0.15958l0.0792-0.1585c0.1285-0.25684 0.2568-0.51368 0.3851-0.77052-0.1994-0.03778-0.3949-0.07836-0.5866-0.12175z" clip-rule="evenodd" fill="#000" fill-rule="evenodd"/>
</svg>
