<svg width="24" height="24" viewBox="0 0 24 24" fill="none" xmlns="http://www.w3.org/2000/svg">
<path fill-rule="evenodd" clip-rule="evenodd" d="M21.12 4.50829L22.5348 4.67351L21.8988 5.94801C21.5887 6.56954 21.2783 7.19101 20.9675 7.81261C20.9307 7.94425 20.8659 8.05965 20.7702 8.2099C20.7301 8.27268 20.5934 8.47239 20.587 8.48197C20.5509 8.53611 20.5242 8.57881 20.505 8.61302V11.0015C20.505 17.1135 14.59 20.9974 9.00397 20.9974C7.86097 20.9974 6.99247 20.9427 5.99807 20.7257C4.36157 20.3685 3.14367 19.6587 2.58637 18.418L2.01261 17.1407L3.40701 17.0124C4.66841 16.8964 5.76211 16.6561 6.60201 16.3343C4.29621 15.9635 3.00401 14.9508 3.00401 13.0489V12.0489H4.00401C4.22372 12.0489 4.42184 12.0311 4.59895 11.9983C2.86845 10.9636 2.00165 9.30382 2.00165 7.00152C2.00146 6.9034 2.00146 6.90339 2.00087 6.79847C1.99437 5.63807 2.0567 5.01797 2.37438 4.22657C2.57797 3.71939 2.87226 3.24986 3.26833 2.81967L4.02294 2L4.7566 2.83847C7.1744 5.60157 9.5644 7.27797 12.0046 7.48067C12.015 4.93097 13.9419 3.00147 16.5047 3.00147C17.6995 3.00147 18.7832 3.45496 19.6349 4.27267C20.101 4.36845 20.5961 4.44703 21.1199 4.50821L21.12 4.50829ZM18.9091 6.16209L18.6026 6.09267L18.3909 5.86035C17.879 5.29862 17.2364 5.00159 16.5048 5.00159C15.0419 5.00159 14.0046 6.04399 14.0046 7.50159C14.0046 7.73981 13.9985 7.88949 13.9688 8.08622C13.8504 8.87123 13.4101 9.50162 12.5046 9.50162C9.50657 9.50162 6.80187 7.89552 4.16437 5.15242C4.0284 5.56575 3.99643 5.99061 4.00089 6.78742C4.00149 6.89399 4.00149 6.89399 4.0017 7.00167C4.0017 9.04967 4.83141 10.17 6.7959 10.7944L7.49298 11.016V11.7474C7.49298 12.6344 6.65265 13.4693 5.42308 13.8433C5.98671 14.271 7.13938 14.5017 9.00428 14.5017H10.0043V15.5017C10.0043 16.9345 8.35798 18.0563 5.87108 18.6421C6.68211 18.8905 7.76198 18.9976 9.00388 18.9976C13.6184 18.9976 18.5049 15.789 18.5049 11.0017V8.50167C18.5049 8.20789 18.5901 7.95288 18.7315 7.68774C18.7869 7.58408 18.8478 7.48524 18.9229 7.37252C18.9371 7.3513 18.9896 7.27441 19.0313 7.21294L19.1105 7.05444C19.239 6.7976 19.3673 6.54076 19.4956 6.28392C19.2962 6.24614 19.1007 6.20556 18.909 6.16217L18.9091 6.16209Z" fill="black"/>
</svg>
