<svg width="35" height="35" viewBox="0 0 35 35" fill="none" xmlns="http://www.w3.org/2000/svg">
<path d="M8.078 11.613C8.18067 11.613 8.27167 11.6527 8.351 11.732L9.093 12.537C8.68233 13.0457 8.176 13.4353 7.574 13.706C6.97667 13.9767 6.258 14.112 5.418 14.112C4.66667 14.112 3.99 13.9837 3.388 13.727C2.79067 13.4703 2.27967 13.1133 1.855 12.656C1.43033 12.1987 1.10367 11.6527 0.875 11.018C0.651 10.3833 0.539 9.69033 0.539 8.939C0.539 8.17833 0.660333 7.483 0.903 6.853C1.14567 6.21833 1.48633 5.67233 1.925 5.215C2.36833 4.75767 2.89567 4.403 3.507 4.151C4.11833 3.89433 4.795 3.766 5.537 3.766C6.27433 3.766 6.92767 3.88733 7.497 4.13C8.071 4.37267 8.55867 4.69 8.96 5.082L8.33 5.957C8.29267 6.013 8.24367 6.062 8.183 6.104C8.127 6.146 8.04767 6.167 7.945 6.167C7.875 6.167 7.80267 6.14833 7.728 6.111C7.65333 6.069 7.57167 6.02 7.483 5.964C7.39433 5.90333 7.29167 5.838 7.175 5.768C7.05833 5.698 6.923 5.635 6.769 5.579C6.615 5.51833 6.43533 5.46933 6.23 5.432C6.02933 5.39 5.796 5.369 5.53 5.369C5.07733 5.369 4.662 5.45067 4.284 5.614C3.91067 5.77267 3.58867 6.006 3.318 6.314C3.04733 6.61733 2.83733 6.99067 2.688 7.434C2.53867 7.87267 2.464 8.37433 2.464 8.939C2.464 9.50833 2.54333 10.0147 2.702 10.458C2.86533 10.9013 3.08467 11.2747 3.36 11.578C3.63533 11.8813 3.95967 12.1147 4.333 12.278C4.70633 12.4367 5.10767 12.516 5.537 12.516C5.79367 12.516 6.02467 12.502 6.23 12.474C6.44 12.446 6.63133 12.4017 6.804 12.341C6.98133 12.2803 7.147 12.2033 7.301 12.11C7.45967 12.012 7.616 11.893 7.77 11.753C7.81667 11.711 7.86567 11.6783 7.917 11.655C7.96833 11.627 8.022 11.613 8.078 11.613ZM11.8599 3.598V14H10.1309V3.598H11.8599ZM16.7605 6.706C17.2925 6.706 17.7755 6.79233 18.2095 6.965C18.6482 7.13767 19.0215 7.38267 19.3295 7.7C19.6422 8.01733 19.8825 8.40467 20.0505 8.862C20.2185 9.31933 20.3025 9.83033 20.3025 10.395C20.3025 10.9643 20.2185 11.4777 20.0505 11.935C19.8825 12.3923 19.6422 12.782 19.3295 13.104C19.0215 13.426 18.6482 13.6733 18.2095 13.846C17.7755 14.0187 17.2925 14.105 16.7605 14.105C16.2238 14.105 15.7362 14.0187 15.2975 13.846C14.8588 13.6733 14.4832 13.426 14.1705 13.104C13.8625 12.782 13.6222 12.3923 13.4495 11.935C13.2815 11.4777 13.1975 10.9643 13.1975 10.395C13.1975 9.83033 13.2815 9.31933 13.4495 8.862C13.6222 8.40467 13.8625 8.01733 14.1705 7.7C14.4832 7.38267 14.8588 7.13767 15.2975 6.965C15.7362 6.79233 16.2238 6.706 16.7605 6.706ZM16.7605 12.775C17.3578 12.775 17.7988 12.5743 18.0835 12.173C18.3728 11.7717 18.5175 11.1837 18.5175 10.409C18.5175 9.63433 18.3728 9.044 18.0835 8.638C17.7988 8.232 17.3578 8.029 16.7605 8.029C16.1538 8.029 15.7035 8.23433 15.4095 8.645C15.1202 9.051 14.9755 9.639 14.9755 10.409C14.9755 11.179 15.1202 11.767 15.4095 12.173C15.7035 12.5743 16.1538 12.775 16.7605 12.775ZM26.0036 8.218C25.9569 8.29267 25.9079 8.34633 25.8566 8.379C25.8052 8.407 25.7399 8.421 25.6606 8.421C25.5766 8.421 25.4856 8.39767 25.3876 8.351C25.2942 8.30433 25.1846 8.253 25.0586 8.197C24.9326 8.13633 24.7879 8.08267 24.6246 8.036C24.4659 7.98933 24.2769 7.966 24.0576 7.966C23.7169 7.966 23.4486 8.03833 23.2526 8.183C23.0612 8.32767 22.9656 8.51667 22.9656 8.75C22.9656 8.904 23.0146 9.03467 23.1126 9.142C23.2152 9.24467 23.3482 9.33567 23.5116 9.415C23.6796 9.49433 23.8686 9.56667 24.0786 9.632C24.2886 9.69267 24.5009 9.76033 24.7156 9.835C24.9349 9.90967 25.1496 9.996 25.3596 10.094C25.5696 10.1873 25.7562 10.3087 25.9196 10.458C26.0876 10.6027 26.2206 10.7777 26.3186 10.983C26.4212 11.1883 26.4726 11.4357 26.4726 11.725C26.4726 12.0703 26.4096 12.39 26.2836 12.684C26.1622 12.9733 25.9802 13.2253 25.7376 13.44C25.4949 13.65 25.1939 13.8157 24.8346 13.937C24.4799 14.0537 24.0692 14.112 23.6026 14.112C23.3552 14.112 23.1126 14.0887 22.8746 14.042C22.6412 14 22.4149 13.9393 22.1956 13.86C21.9809 13.7807 21.7802 13.6873 21.5936 13.58C21.4116 13.4727 21.2506 13.356 21.1106 13.23L21.5096 12.572C21.5609 12.4927 21.6216 12.432 21.6916 12.39C21.7616 12.348 21.8502 12.327 21.9576 12.327C22.0649 12.327 22.1652 12.3573 22.2586 12.418C22.3566 12.4787 22.4686 12.544 22.5946 12.614C22.7206 12.684 22.8676 12.7493 23.0356 12.81C23.2082 12.8707 23.4252 12.901 23.6866 12.901C23.8919 12.901 24.0669 12.8777 24.2116 12.831C24.3609 12.7797 24.4822 12.7143 24.5756 12.635C24.6736 12.5557 24.7436 12.4647 24.7856 12.362C24.8322 12.2547 24.8556 12.145 24.8556 12.033C24.8556 11.865 24.8042 11.7273 24.7016 11.62C24.6036 11.5127 24.4706 11.4193 24.3026 11.34C24.1392 11.2607 23.9502 11.1907 23.7356 11.13C23.5256 11.0647 23.3086 10.9947 23.0846 10.92C22.8652 10.8453 22.6482 10.759 22.4336 10.661C22.2236 10.5583 22.0346 10.43 21.8666 10.276C21.7032 10.122 21.5702 9.933 21.4676 9.709C21.3696 9.485 21.3206 9.21433 21.3206 8.897C21.3206 8.603 21.3789 8.323 21.4956 8.057C21.6122 7.791 21.7826 7.56 22.0066 7.364C22.2352 7.16333 22.5176 7.00467 22.8536 6.888C23.1942 6.76667 23.5862 6.706 24.0296 6.706C24.5242 6.706 24.9746 6.78767 25.3806 6.951C25.7866 7.11433 26.1249 7.329 26.3956 7.595L26.0036 8.218ZM32.4009 9.583C32.4009 9.359 32.3683 9.149 32.3029 8.953C32.2423 8.75233 32.1489 8.57733 32.0229 8.428C31.8969 8.27867 31.7359 8.162 31.5399 8.078C31.3486 7.98933 31.1246 7.945 30.8679 7.945C30.3686 7.945 29.9743 8.08733 29.6849 8.372C29.4003 8.65667 29.2183 9.06033 29.1389 9.583H32.4009ZM29.1039 10.626C29.1319 10.9947 29.1973 11.3143 29.2999 11.585C29.4026 11.851 29.5379 12.0727 29.7059 12.25C29.8739 12.4227 30.0723 12.5533 30.3009 12.642C30.5343 12.726 30.7909 12.768 31.0709 12.768C31.3509 12.768 31.5913 12.7353 31.7919 12.67C31.9973 12.6047 32.1746 12.5323 32.3239 12.453C32.4779 12.3737 32.6109 12.3013 32.7229 12.236C32.8396 12.1707 32.9516 12.138 33.0589 12.138C33.2036 12.138 33.3109 12.1917 33.3809 12.299L33.8779 12.929C33.6866 13.153 33.4719 13.342 33.2339 13.496C32.9959 13.6453 32.7463 13.7667 32.4849 13.86C32.2283 13.9487 31.9646 14.0117 31.6939 14.049C31.4279 14.0863 31.1689 14.105 30.9169 14.105C30.4176 14.105 29.9533 14.0233 29.5239 13.86C29.0946 13.692 28.7213 13.447 28.4039 13.125C28.0866 12.7983 27.8369 12.397 27.6549 11.921C27.4729 11.4403 27.3819 10.885 27.3819 10.255C27.3819 9.765 27.4613 9.30533 27.6199 8.876C27.7786 8.442 28.0049 8.06633 28.2989 7.749C28.5976 7.427 28.9593 7.17267 29.3839 6.986C29.8133 6.79933 30.2963 6.706 30.8329 6.706C31.2856 6.706 31.7033 6.77833 32.0859 6.923C32.4686 7.06767 32.7976 7.28 33.0729 7.56C33.3483 7.83533 33.5629 8.176 33.7169 8.582C33.8756 8.98333 33.9549 9.443 33.9549 9.961C33.9549 10.2223 33.9269 10.3997 33.8709 10.493C33.8149 10.5817 33.7076 10.626 33.5489 10.626H29.1039Z" fill="#353C3A"/>
<rect x="1" y="19" width="33" height="3" fill="#353C3A"/>
<path d="M1 27H34L19.9828 33.3714C18.4053 34.0885 16.5947 34.0885 15.0172 33.3714L1 27Z" fill="#353C3A"/>
</svg>
