<svg width="24" height="24" viewBox="0 0 24 24" fill="none" xmlns="http://www.w3.org/2000/svg">
<path fill-rule="evenodd" clip-rule="evenodd" d="M10.0171 20.0037C10.0223 20.1266 10.0091 20.2465 9.98329 20.3678C9.93784 20.581 9.85006 20.8066 9.7258 21.0151C9.37258 21.6076 8.77253 22.003 8 22.003C6.1801 22.003 5.4658 21.1102 4.5715 18.8744C3.96582 17.3602 3.68008 17.003 3 17.003V15.003C4.8199 15.003 5.5342 15.8959 6.4285 18.1316C7.03418 19.6459 7.31992 20.003 8 20.003C8 19.7129 7.99603 19.4558 7.98766 19.1078C7.96806 18.292 7.96581 18.1254 8.0014 17.9073C8.01562 17.4312 8.13854 17.0934 8.385 16.7582C6.1532 16.2723 4.6479 15.269 3.784 13.6415L3.46037 12.8804C3.14508 11.9743 3.00003 10.9476 3.00003 9.7619C3.00003 8.3963 3.41638 7.1754 4.19403 6.1547C3.95144 5.18456 3.98466 3.9993 4.52032 2.6606L4.69535 2.2232L5.14408 2.07966C5.20416 2.06044 5.27719 2.04309 5.363 2.02962C6.23677 1.89248 7.4801 2.21968 9.1056 3.26082C10.0638 3.0387 11.0728 2.92655 12.0888 2.92655C12.9966 2.92655 13.8995 3.01808 14.7616 3.19852C16.3431 2.20819 17.5522 1.89762 18.4025 2.02972C18.4873 2.04291 18.5596 2.05994 18.6192 2.07883L19.0707 2.22202L19.246 2.66209C19.7146 3.83879 19.795 4.92329 19.6245 5.87219C20.5185 6.94489 21 8.26369 21 9.76169C21 11.0247 20.9095 11.9743 20.6494 12.8982L20.3749 13.6516C19.6563 15.2773 18.0715 16.2919 15.6275 16.7751C15.8816 17.1269 16 17.4839 16 18.0028V19.0028C16 19.4874 16 19.5024 15.9989 20.0028C16.0012 20.0388 16.0042 20.0564 16.0074 20.0673C16.0066 20.0676 16 22.0028 16 22.0028C15.1482 22.0028 14.5149 21.5874 14.2034 20.9322C14.0419 20.5924 13.9936 20.268 14 19.9886V18.0028C14 17.919 13.9971 17.9141 13.7929 17.7099C13.2471 17.1641 13 16.7523 13 16.0028V15.0982L13.9001 15.0078C16.5793 14.7388 18.0365 13.9947 18.5197 12.9077L18.7455 12.2905C18.9251 11.6451 19 10.8592 19 9.76169C19 8.59559 18.5929 7.63229 17.823 6.86269L17.3998 6.43967L17.5725 5.86679C17.726 5.35784 17.7624 4.75559 17.6001 4.06869C17.5731 4.07552 17.5451 4.08297 17.516 4.09107C16.9805 4.24014 16.312 4.56 15.5064 5.09847L15.139 5.34407L14.7101 5.2377C13.8804 5.03198 12.9889 4.92635 12.0888 4.92635C11.0879 4.92635 10.0985 5.0537 9.1845 5.30288L8.73845 5.42448L8.35686 5.16344C7.52367 4.59345 6.83146 4.25449 6.27646 4.09614C6.23682 4.08483 6.19908 4.07471 6.1632 4.06569C5.96956 4.86068 6.04615 5.51379 6.24227 6.00389L6.47742 6.59154L6.04693 7.05555C5.36094 7.79493 5.00003 8.69475 5.00003 9.76155C5.00003 10.7384 5.11437 11.5478 5.32391 12.1574L5.5856 12.7769C6.23977 14.0044 7.6292 14.7429 10.1066 15.0084L11 15.1042V16.0027C11 16.7522 10.7529 17.164 10.2071 17.7098C10.0029 17.914 10 17.9189 10 18.0027L9.98276 18.1876C9.97136 18.2482 9.97136 18.4048 9.98709 19.0594C9.99432 19.3605 9.99844 19.5988 9.99963 19.8478C10.0116 19.8994 10.0134 19.9326 10.0172 20.0034L10.0171 20.0037Z" fill="#353C3A"/>
</svg>
