<svg width="24" height="24" viewBox="0 0 24 24" fill="none" xmlns="http://www.w3.org/2000/svg">
<path fill-rule="evenodd" clip-rule="evenodd" d="M21.1196 4.50829L22.5344 4.67351L21.8984 5.94801C21.5883 6.56954 21.2779 7.19101 20.9671 7.81261C20.9303 7.94425 20.8655 8.05965 20.7698 8.2099C20.7297 8.27268 20.593 8.47239 20.5866 8.48197C20.5505 8.53611 20.5238 8.57881 20.5046 8.61302V11.0015C20.5046 17.1135 14.5896 20.9974 9.00354 20.9974C7.86054 20.9974 6.99204 20.9427 5.99764 20.7257C4.36114 20.3685 3.14324 19.6587 2.58594 18.418L2.01218 17.1407L3.40658 17.0124C4.66798 16.8964 5.76168 16.6561 6.60158 16.3343C4.29578 15.9635 3.00358 14.9508 3.00358 13.0489V12.0489H4.00358C4.22329 12.0489 4.42141 12.0311 4.59852 11.9983C2.86802 10.9636 2.00122 9.30382 2.00122 7.00152C2.00103 6.9034 2.00103 6.90339 2.00044 6.79847C1.99394 5.63807 2.05627 5.01797 2.37395 4.22657C2.57754 3.71939 2.87183 3.24986 3.2679 2.81967L4.02251 2L4.75617 2.83847C7.17397 5.60157 9.56397 7.27797 12.0042 7.48067C12.0146 4.93097 13.9415 3.00147 16.5043 3.00147C17.6991 3.00147 18.7828 3.45496 19.6345 4.27267C20.1006 4.36845 20.5957 4.44703 21.1195 4.50821L21.1196 4.50829ZM18.9087 6.16209L18.6022 6.09267L18.3905 5.86035C17.8786 5.29862 17.236 5.00159 16.5044 5.00159C15.0415 5.00159 14.0042 6.04399 14.0042 7.50159C14.0042 7.73981 13.9981 7.88949 13.9684 8.08622C13.85 8.87123 13.4097 9.50162 12.5042 9.50162C9.50614 9.50162 6.80144 7.89552 4.16394 5.15242C4.02797 5.56575 3.996 5.99061 4.00046 6.78742C4.00106 6.89399 4.00106 6.89399 4.00127 7.00167C4.00127 9.04967 4.83098 10.17 6.79547 10.7944L7.49255 11.016V11.7474C7.49255 12.6344 6.65222 13.4693 5.42265 13.8433C5.98628 14.271 7.13895 14.5017 9.00385 14.5017H10.0039V15.5017C10.0039 16.9345 8.35755 18.0563 5.87065 18.6421C6.68168 18.8905 7.76155 18.9976 9.00345 18.9976C13.618 18.9976 18.5045 15.789 18.5045 11.0017V8.50167C18.5045 8.20789 18.5897 7.95288 18.7311 7.68774C18.7865 7.58408 18.8474 7.48524 18.9225 7.37252C18.9367 7.3513 18.9892 7.27441 19.0309 7.21294L19.1101 7.05444C19.2386 6.7976 19.3669 6.54076 19.4952 6.28392C19.2958 6.24614 19.1003 6.20556 18.9086 6.16217L18.9087 6.16209Z" fill="#353C3A"/>
</svg>
